<svg id="Layer_1" data-name="Layer 1" xmlns="http://www.w3.org/2000/svg" viewBox="0 0 800 171.59"><defs><style>.cls-1{fill:#fff;}</style></defs><path class="cls-1" d="M408.19,64.35V0h53.9V11.81H422.61V25.32h37.58V37.13H422.61V52.54h39.57l.09,11.81Z"/><path class="cls-1" d="M522.83,64.35,508.77,40.28H489.93V64.35H476.06V0h31.63q26.94,0,26.94,20.1a18.38,18.38,0,0,1-3,10.81,19.46,19.46,0,0,1-9.23,6.76L538.6,64.35ZM506.61,29.2q7.11,0,10.5-2.21t3.37-7q0-4.79-3.19-6.85t-10.5-2.08H489.93V29.2Z"/><path class="cls-1" d="M567.8,64.35,540.13,0h16.14l20.09,50.11L596.55,0h15.59L584.47,64.35Z"/><path class="cls-1" d="M621.2,64.35V0h14.42V64.35Z"/><path class="cls-1" d="M784.77,64.35l-6.4-14.6H745.93l-6.31,14.6H724.75L754.22,0h16.31L800,64.35ZM762.15,12.53,750.79,38.3h22.72Z"/><path class="cls-1" d="M447,170l-6.42-14.64H408.08L401.75,170H386.84l29.55-64.52h16.36L462.3,170Zm-22.68-52L413,143.85h22.77Z"/><path class="cls-1" d="M471.43,170V105.44h31.36q26.48,0,26.48,16.63,0,10-10.49,13.73,12.93,4.26,12.93,15.37,0,9.21-7,14T504.23,170Zm31.45-38.76c4.27,0,7.41-.64,9.4-1.9a6.48,6.48,0,0,0,3-5.88,5.75,5.75,0,0,0-3.07-5.46c-2.05-1.12-5.4-1.68-10-1.68H485.08V131.2Zm.36,27.92q7.5,0,10.93-2a7,7,0,0,0,3.44-6.56,7.34,7.34,0,0,0-3.44-6.68q-3.43-2.17-10.84-2.17H485.08v17.44Z"/><path class="cls-1" d="M588.1,123.6a12.7,12.7,0,0,0-5.7-6.64q-3.78-2-10.57-2-7.68,0-11.75,1.9T556,122.34a5.61,5.61,0,0,0,2.48,5.06c1.66,1.08,4.69,2,9.08,2.62l13.29,2.08q11.83,1.89,17.35,6.64t5.51,13.06a16.44,16.44,0,0,1-8,14.59q-8,5.21-22.82,5.2-10.75,0-17.85-2.53a22.21,22.21,0,0,1-10.85-7.68,25.81,25.81,0,0,1-4.47-13.11H554.3q.9,6.33,5.33,9.27t13.29,2.94q8,0,12-2.13a6.75,6.75,0,0,0,4-6.28,6.08,6.08,0,0,0-2.66-5.24q-2.67-1.91-8.45-2.71L567,142.58q-13.2-1.8-19.29-6.55t-6.1-13.33a15,15,0,0,1,3.61-10,22.94,22.94,0,0,1,10.53-6.55,52.28,52.28,0,0,1,16.49-2.31q13.2,0,20.43,4.39T602.11,122Z"/><polygon class="cls-1" points="343.15 157.94 343.15 105.44 328.69 105.44 328.69 169.96 380.7 169.96 380.7 157.94 343.15 157.94"/><polygon id="type_PathItem_" data-name="type PathItem " class="cls-1" points="378.51 0.06 378.51 37.62 328.17 0.06 328.17 64.35 341.96 64.35 341.96 26.79 392.3 64.35 392.3 0.06 378.51 0.06"/><polygon id="type_PathItem_2" data-name="type PathItem " class="cls-1" points="702.04 0.06 702.04 37.62 651.7 0.06 651.7 64.35 665.5 64.35 665.5 26.79 715.84 64.35 715.84 0.06 702.04 0.06"/><rect class="cls-1" x="162.34" width="55.25" height="169.99"/><polygon class="cls-1" points="272.85 169.99 217.61 169.99 217.61 169.99 272.85 114.74 272.85 169.99"/><polygon class="cls-1" points="98.59 0 0 169.99 63.71 169.99 162.3 0 98.59 0"/></svg>