<svg width="100" height="100" viewBox="0 0 100 100" fill="none" xmlns="http://www.w3.org/2000/svg">
<rect x="16.6748" y="16.6656" width="25" height="25" fill="#343434"/>
<path d="M0.00813675 16.6667V0L16.6748 16.6667H0.00813675Z" fill="black"/>
<path d="M83.3333 75.001V58.3344L100 75.001H83.3333Z" fill="black"/>
<path d="M66.6585 58.3323V41.6656L83.3252 58.3323H66.6585Z" fill="black"/>
<path d="M41.6748 41.6657L16.6748 41.6656L41.6748 16.6657L41.6748 41.6657Z" fill="white"/>
<path d="M66.6585 66.6677L83.3252 66.6677L66.6585 83.3344L66.6585 66.6677Z" fill="#9A5FE4"/>
<path d="M87.5 0V25L62.5 0L87.5 0Z" fill="#9A5FE4"/>
<path d="M83.3333 99.999L50 99.999L83.3333 66.6657L83.3333 99.999Z" fill="#343434"/>
<path d="M5.96244e-07 50L50 50L0 100L5.96244e-07 50Z" fill="white"/>
<path d="M41.6748 41.6656V16.6656L66.6748 41.6656H41.6748Z" fill="black"/>
<path d="M16.6667 16.6677L-7.28523e-07 16.6677L16.6667 33.3343L16.6667 16.6677Z" fill="black"/>
<path d="M99.9919 74.999L83.3252 74.999L99.9919 91.6656L99.9919 74.999Z" fill="black"/>
<path d="M66.6748 41.6656L41.6748 41.6656L66.6748 66.6656L66.6748 41.6656Z" fill="black"/>
<rect x="25" y="41.6656" width="8.33333" height="8.33333" fill="#6C2AF6"/>
<rect x="16.6748" y="41.6656" width="8.33333" height="8.33333" fill="#9A5FE4"/>
<path d="M66.6748 58.3344H75.0081V66.6677H66.6748V58.3344Z" fill="#6C2AF6"/>
<rect x="33.3252" y="41.6656" width="8.33333" height="8.33333" fill="#6C2AF6"/>
<rect x="75" y="58.3344" width="8.33333" height="8.33333" fill="white"/>
<circle cx="68.7581" cy="32.0821" r="8.33333" fill="#9A5FE4"/>
<path d="M87.5 25C94.4036 25 100 19.4036 100 12.5C100 5.59644 94.4036 0 87.5 0V25Z" fill="#343434"/>
<path d="M41.6667 83.3323L25 83.3323L41.6667 66.6657L41.6667 83.3323Z" fill="#9A5FE4"/>
</svg>
