<svg width="100" height="100" viewBox="0 0 100 100" fill="none" xmlns="http://www.w3.org/2000/svg">
<path d="M35.972 65.3242C31.6509 61.0031 24.6451 61.0031 20.324 65.3242C16.0029 69.6452 16.0029 76.6511 20.324 80.9722L35.972 65.3242Z" fill="white"/>
<circle cx="16.9445" cy="42.5001" r="16.6667" fill="black"/>
<circle cx="45.5556" cy="21.3889" r="5.55556" fill="#6C2AF6"/>
<rect x="28.0555" y="73.3335" width="11.0648" height="11.0648" fill="#9A5FE4"/>
<path d="M61.9747 42.5858C51.8298 36.2242 38.4486 39.2912 32.0871 49.4361L68.825 72.4733C75.1866 62.3284 72.1196 48.9473 61.9747 42.5858Z" fill="#343434"/>
<path d="M66.6666 36.9445C66.6666 55.354 81.5905 70.2779 100 70.2779L100 3.61121C81.5905 3.61121 66.6666 18.535 66.6666 36.9445Z" fill="white"/>
<rect x="61.3889" y="80.1277" width="11.1111" height="11.1111" transform="rotate(-46.4098 61.3889 80.1277)" fill="#6C2AF6"/>
<rect x="69.05" y="72.08" width="11.1111" height="11.1111" transform="rotate(-46.4098 69.05 72.08)" fill="#343434"/>
<rect x="18.3334" y="5.75156" width="22.2222" height="22.2222" transform="rotate(-15 18.3334 5.75156)" fill="black"/>
<circle cx="49.1667" cy="88.8891" r="11.1111" fill="#3E3E3E"/>
</svg>
