<svg width="343" height="343" viewBox="0 0 343 343" fill="none" xmlns="http://www.w3.org/2000/svg">
<rect x="19.5555" y="19.5555" width="18.0556" height="18.0556" stroke="#3E3E3E"/>
<rect x="172" y="19.5555" width="18.0556" height="18.0556" stroke="#3E3E3E"/>
<rect x="19.5554" y="172" width="18.0556" height="18.0556" stroke="#3E3E3E"/>
<rect x="172" y="172" width="18.0556" height="18.0556" stroke="#3E3E3E"/>
<rect x="95.7776" y="19.5555" width="18.0556" height="18.0556" stroke="#3E3E3E"/>
<rect x="248.222" y="19.5555" width="18.0556" height="18.0556" stroke="#3E3E3E"/>
<rect x="95.7776" y="172" width="18.0556" height="18.0556" stroke="#3E3E3E"/>
<rect x="248.222" y="172" width="18.0556" height="18.0556" stroke="#3E3E3E"/>
<rect x="95.7776" y="95.7778" width="18.0556" height="18.0556" stroke="#3E3E3E"/>
<rect x="248.222" y="95.7778" width="18.0556" height="18.0556" stroke="#3E3E3E"/>
<rect x="95.7776" y="248.222" width="18.0556" height="18.0556" stroke="#3E3E3E"/>
<rect x="248.222" y="248.222" width="18.0556" height="18.0556" stroke="#3E3E3E"/>
<rect x="19.5554" y="95.7778" width="18.0556" height="18.0556" stroke="#3E3E3E"/>
<rect x="172" y="95.7778" width="18.0556" height="18.0556" stroke="#3E3E3E"/>
<rect x="19.5554" y="248.222" width="18.0556" height="18.0556" stroke="#3E3E3E"/>
<rect x="172" y="248.222" width="18.0556" height="18.0556" stroke="#3E3E3E"/>
<rect x="19.5554" y="57.6667" width="18.0556" height="18.0556" stroke="#3E3E3E"/>
<rect x="172" y="57.6667" width="18.0556" height="18.0556" stroke="#3E3E3E"/>
<rect x="19.5554" y="210.111" width="18.0556" height="18.0556" stroke="#3E3E3E"/>
<rect x="172" y="210.111" width="18.0556" height="18.0556" stroke="#3E3E3E"/>
<rect x="95.7776" y="57.6667" width="18.0556" height="18.0556" stroke="#3E3E3E"/>
<rect x="248.222" y="57.6667" width="18.0556" height="18.0556" stroke="#3E3E3E"/>
<rect x="95.7776" y="210.111" width="18.0556" height="18.0556" stroke="#3E3E3E"/>
<rect x="248.222" y="210.111" width="18.0556" height="18.0556" stroke="#3E3E3E"/>
<rect x="95.7776" y="133.889" width="18.0556" height="18.0556" stroke="#3E3E3E"/>
<rect x="248.222" y="133.889" width="18.0556" height="18.0556" stroke="#3E3E3E"/>
<rect x="95.7776" y="286.333" width="18.0556" height="18.0556" stroke="#3E3E3E"/>
<rect x="248.222" y="286.333" width="18.0556" height="18.0556" stroke="#3E3E3E"/>
<rect x="19.5554" y="133.889" width="18.0556" height="18.0556" stroke="#3E3E3E"/>
<rect x="172" y="133.889" width="18.0556" height="18.0556" stroke="#3E3E3E"/>
<rect x="19.5554" y="286.333" width="18.0556" height="18.0556" stroke="#3E3E3E"/>
<rect x="172" y="286.333" width="18.0556" height="18.0556" stroke="#3E3E3E"/>
<rect x="57.6665" y="19.5555" width="18.0556" height="18.0556" stroke="#3E3E3E"/>
<rect x="210.111" y="19.5555" width="18.0556" height="18.0556" stroke="#3E3E3E"/>
<rect x="57.6665" y="172" width="18.0556" height="18.0556" stroke="#3E3E3E"/>
<rect x="210.111" y="172" width="18.0556" height="18.0556" stroke="#3E3E3E"/>
<rect x="133.889" y="19.5555" width="18.0556" height="18.0556" stroke="#3E3E3E"/>
<rect x="286.333" y="19.5555" width="18.0556" height="18.0556" stroke="#3E3E3E"/>
<rect x="133.889" y="172" width="18.0556" height="18.0556" stroke="#3E3E3E"/>
<rect x="286.333" y="172" width="18.0556" height="18.0556" stroke="#3E3E3E"/>
<rect x="133.889" y="95.7778" width="18.0556" height="18.0556" stroke="#3E3E3E"/>
<rect x="286.333" y="95.7778" width="18.0556" height="18.0556" stroke="#3E3E3E"/>
<rect x="133.889" y="248.222" width="18.0556" height="18.0556" stroke="#3E3E3E"/>
<rect x="286.333" y="248.222" width="18.0556" height="18.0556" stroke="#3E3E3E"/>
<rect x="57.6665" y="95.7778" width="18.0556" height="18.0556" stroke="#3E3E3E"/>
<rect x="210.111" y="95.7778" width="18.0556" height="18.0556" stroke="#3E3E3E"/>
<rect x="57.6665" y="248.222" width="18.0556" height="18.0556" stroke="#3E3E3E"/>
<rect x="210.111" y="248.222" width="18.0556" height="18.0556" stroke="#3E3E3E"/>
<rect x="57.6665" y="57.6667" width="18.0556" height="18.0556" stroke="#3E3E3E"/>
<rect x="210.111" y="57.6667" width="18.0556" height="18.0556" stroke="#3E3E3E"/>
<rect x="57.6665" y="210.111" width="18.0556" height="18.0556" stroke="#3E3E3E"/>
<rect x="210.111" y="210.111" width="18.0556" height="18.0556" stroke="#3E3E3E"/>
<rect x="133.889" y="57.6667" width="18.0556" height="18.0556" stroke="#3E3E3E"/>
<rect x="286.333" y="57.6667" width="18.0556" height="18.0556" stroke="#3E3E3E"/>
<rect x="133.889" y="210.111" width="18.0556" height="18.0556" stroke="#3E3E3E"/>
<rect x="286.333" y="210.111" width="18.0556" height="18.0556" stroke="#3E3E3E"/>
<rect x="133.889" y="133.889" width="18.0556" height="18.0556" stroke="#3E3E3E"/>
<rect x="286.333" y="133.889" width="18.0556" height="18.0556" stroke="#3E3E3E"/>
<rect x="133.889" y="286.333" width="18.0556" height="18.0556" stroke="#3E3E3E"/>
<rect x="286.333" y="286.333" width="18.0556" height="18.0556" stroke="#3E3E3E"/>
<rect x="57.6665" y="133.889" width="18.0556" height="18.0556" stroke="#3E3E3E"/>
<rect x="210.111" y="133.889" width="18.0556" height="18.0556" stroke="#3E3E3E"/>
<rect x="57.6665" y="286.333" width="18.0556" height="18.0556" stroke="#3E3E3E"/>
<rect x="210.111" y="286.333" width="18.0556" height="18.0556" stroke="#3E3E3E"/>
<rect x="19.5554" y="38.6111" width="18.0556" height="18.0556" stroke="#3E3E3E"/>
<rect x="172" y="38.6111" width="18.0556" height="18.0556" stroke="#3E3E3E"/>
<rect x="19.5554" y="191.056" width="18.0556" height="18.0556" stroke="#3E3E3E"/>
<rect x="172" y="191.056" width="18.0556" height="18.0556" stroke="#3E3E3E"/>
<rect x="95.7776" y="38.6111" width="18.0556" height="18.0556" stroke="#3E3E3E"/>
<rect x="248.222" y="38.6111" width="18.0556" height="18.0556" stroke="#3E3E3E"/>
<rect x="95.7776" y="191.056" width="18.0556" height="18.0556" stroke="#3E3E3E"/>
<rect x="248.222" y="191.056" width="18.0556" height="18.0556" stroke="#3E3E3E"/>
<rect x="95.7776" y="114.833" width="18.0556" height="18.0556" stroke="#3E3E3E"/>
<rect x="248.222" y="114.833" width="18.0556" height="18.0556" stroke="#3E3E3E"/>
<rect x="95.7776" y="267.278" width="18.0556" height="18.0556" stroke="#3E3E3E"/>
<rect x="248.222" y="267.278" width="18.0556" height="18.0556" stroke="#3E3E3E"/>
<rect x="19.5554" y="114.833" width="18.0556" height="18.0556" stroke="#3E3E3E"/>
<rect x="172" y="114.833" width="18.0556" height="18.0556" stroke="#3E3E3E"/>
<rect x="19.5554" y="267.278" width="18.0556" height="18.0556" stroke="#3E3E3E"/>
<rect x="172" y="267.278" width="18.0556" height="18.0556" stroke="#3E3E3E"/>
<rect x="19.5554" y="76.7222" width="18.0556" height="18.0556" stroke="#3E3E3E"/>
<rect x="172" y="76.7222" width="18.0556" height="18.0556" stroke="#3E3E3E"/>
<rect x="19.5554" y="229.167" width="18.0556" height="18.0556" stroke="#3E3E3E"/>
<rect x="172" y="229.167" width="18.0556" height="18.0556" stroke="#3E3E3E"/>
<rect x="95.7776" y="76.7222" width="18.0556" height="18.0556" stroke="#3E3E3E"/>
<rect x="248.222" y="76.7222" width="18.0556" height="18.0556" stroke="#3E3E3E"/>
<rect x="95.7776" y="229.167" width="18.0556" height="18.0556" stroke="#3E3E3E"/>
<rect x="248.222" y="229.167" width="18.0556" height="18.0556" stroke="#3E3E3E"/>
<rect x="95.7776" y="152.944" width="18.0556" height="18.0556" stroke="#3E3E3E"/>
<rect x="248.222" y="152.944" width="18.0556" height="18.0556" stroke="#3E3E3E"/>
<rect x="95.7776" y="305.389" width="18.0556" height="18.0556" stroke="#3E3E3E"/>
<rect x="248.222" y="305.389" width="18.0556" height="18.0556" stroke="#3E3E3E"/>
<rect x="19.5554" y="152.944" width="18.0556" height="18.0556" stroke="#3E3E3E"/>
<rect x="172" y="152.944" width="18.0556" height="18.0556" stroke="#3E3E3E"/>
<rect x="19.5554" y="305.389" width="18.0556" height="18.0556" stroke="#3E3E3E"/>
<rect x="172" y="305.389" width="18.0556" height="18.0556" stroke="#3E3E3E"/>
<rect x="57.6665" y="38.6111" width="18.0556" height="18.0556" stroke="#3E3E3E"/>
<rect x="210.111" y="38.6111" width="18.0556" height="18.0556" stroke="#3E3E3E"/>
<rect x="57.6665" y="191.056" width="18.0556" height="18.0556" stroke="#3E3E3E"/>
<rect x="210.111" y="191.056" width="18.0556" height="18.0556" stroke="#3E3E3E"/>
<rect x="133.889" y="38.6111" width="18.0556" height="18.0556" stroke="#3E3E3E"/>
<rect x="286.333" y="38.6111" width="18.0556" height="18.0556" stroke="#3E3E3E"/>
<rect x="133.889" y="191.056" width="18.0556" height="18.0556" stroke="#3E3E3E"/>
<rect x="286.333" y="191.056" width="18.0556" height="18.0556" stroke="#3E3E3E"/>
<rect x="133.889" y="114.833" width="18.0556" height="18.0556" stroke="#3E3E3E"/>
<rect x="286.333" y="114.833" width="18.0556" height="18.0556" stroke="#3E3E3E"/>
<rect x="133.889" y="267.278" width="18.0556" height="18.0556" stroke="#3E3E3E"/>
<rect x="286.333" y="267.278" width="18.0556" height="18.0556" stroke="#3E3E3E"/>
<rect x="57.6665" y="114.833" width="18.0556" height="18.0556" stroke="#3E3E3E"/>
<rect x="210.111" y="114.833" width="18.0556" height="18.0556" stroke="#3E3E3E"/>
<rect x="57.6665" y="267.278" width="18.0556" height="18.0556" stroke="#3E3E3E"/>
<rect x="210.111" y="267.278" width="18.0556" height="18.0556" stroke="#3E3E3E"/>
<rect x="57.6665" y="76.7222" width="18.0556" height="18.0556" stroke="#3E3E3E"/>
<rect x="210.111" y="76.7222" width="18.0556" height="18.0556" stroke="#3E3E3E"/>
<rect x="57.6665" y="229.167" width="18.0556" height="18.0556" stroke="#3E3E3E"/>
<rect x="210.111" y="229.167" width="18.0556" height="18.0556" stroke="#3E3E3E"/>
<rect x="133.889" y="76.7222" width="18.0556" height="18.0556" stroke="#3E3E3E"/>
<rect x="286.333" y="76.7222" width="18.0556" height="18.0556" stroke="#3E3E3E"/>
<rect x="133.889" y="229.167" width="18.0556" height="18.0556" stroke="#3E3E3E"/>
<rect x="286.333" y="229.167" width="18.0556" height="18.0556" stroke="#3E3E3E"/>
<rect x="133.889" y="152.944" width="18.0556" height="18.0556" stroke="#3E3E3E"/>
<rect x="286.333" y="152.944" width="18.0556" height="18.0556" stroke="#3E3E3E"/>
<rect x="133.889" y="305.389" width="18.0556" height="18.0556" stroke="#3E3E3E"/>
<rect x="286.333" y="305.389" width="18.0556" height="18.0556" stroke="#3E3E3E"/>
<rect x="57.6665" y="152.944" width="18.0556" height="18.0556" stroke="#3E3E3E"/>
<rect x="210.111" y="152.944" width="18.0556" height="18.0556" stroke="#3E3E3E"/>
<rect x="57.6665" y="305.389" width="18.0556" height="18.0556" stroke="#3E3E3E"/>
<rect x="210.111" y="305.389" width="18.0556" height="18.0556" stroke="#3E3E3E"/>
<rect x="38.611" y="19.5555" width="18.0556" height="18.0556" stroke="#3E3E3E"/>
<rect x="191.055" y="19.5555" width="18.0556" height="18.0556" stroke="#3E3E3E"/>
<rect x="38.611" y="172" width="18.0556" height="18.0556" stroke="#3E3E3E"/>
<rect x="191.055" y="172" width="18.0556" height="18.0556" stroke="#3E3E3E"/>
<rect x="114.833" y="19.5555" width="18.0556" height="18.0556" stroke="#3E3E3E"/>
<rect x="267.278" y="19.5555" width="18.0556" height="18.0556" stroke="#3E3E3E"/>
<rect x="114.833" y="172" width="18.0556" height="18.0556" stroke="#3E3E3E"/>
<rect x="267.278" y="172" width="18.0556" height="18.0556" stroke="#3E3E3E"/>
<rect x="114.833" y="95.7778" width="18.0556" height="18.0556" stroke="#3E3E3E"/>
<rect x="267.278" y="95.7778" width="18.0556" height="18.0556" stroke="#3E3E3E"/>
<rect x="114.833" y="248.222" width="18.0556" height="18.0556" stroke="#3E3E3E"/>
<rect x="267.278" y="248.222" width="18.0556" height="18.0556" stroke="#3E3E3E"/>
<rect x="38.611" y="95.7778" width="18.0556" height="18.0556" stroke="#3E3E3E"/>
<rect x="191.055" y="95.7778" width="18.0556" height="18.0556" stroke="#3E3E3E"/>
<rect x="38.611" y="248.222" width="18.0556" height="18.0556" stroke="#3E3E3E"/>
<rect x="191.055" y="248.222" width="18.0556" height="18.0556" stroke="#3E3E3E"/>
<rect x="38.611" y="57.6667" width="18.0556" height="18.0556" stroke="#3E3E3E"/>
<rect x="191.055" y="57.6667" width="18.0556" height="18.0556" stroke="#3E3E3E"/>
<rect x="38.611" y="210.111" width="18.0556" height="18.0556" stroke="#3E3E3E"/>
<rect x="191.055" y="210.111" width="18.0556" height="18.0556" stroke="#3E3E3E"/>
<rect x="114.833" y="57.6667" width="18.0556" height="18.0556" stroke="#3E3E3E"/>
<rect x="267.278" y="57.6667" width="18.0556" height="18.0556" stroke="#3E3E3E"/>
<rect x="114.833" y="210.111" width="18.0556" height="18.0556" stroke="#3E3E3E"/>
<rect x="267.278" y="210.111" width="18.0556" height="18.0556" stroke="#3E3E3E"/>
<rect x="114.833" y="133.889" width="18.0556" height="18.0556" stroke="#3E3E3E"/>
<rect x="267.278" y="133.889" width="18.0556" height="18.0556" stroke="#3E3E3E"/>
<rect x="114.833" y="286.333" width="18.0556" height="18.0556" stroke="#3E3E3E"/>
<rect x="267.278" y="286.333" width="18.0556" height="18.0556" stroke="#3E3E3E"/>
<rect x="38.611" y="133.889" width="18.0556" height="18.0556" stroke="#3E3E3E"/>
<rect x="191.055" y="133.889" width="18.0556" height="18.0556" stroke="#3E3E3E"/>
<rect x="38.611" y="286.333" width="18.0556" height="18.0556" stroke="#3E3E3E"/>
<rect x="191.055" y="286.333" width="18.0556" height="18.0556" stroke="#3E3E3E"/>
<rect x="76.722" y="19.5555" width="18.0556" height="18.0556" stroke="#3E3E3E"/>
<rect x="229.167" y="19.5555" width="18.0556" height="18.0556" stroke="#3E3E3E"/>
<rect x="76.722" y="172" width="18.0556" height="18.0556" stroke="#3E3E3E"/>
<rect x="229.167" y="172" width="18.0556" height="18.0556" stroke="#3E3E3E"/>
<rect x="152.944" y="19.5555" width="18.0556" height="18.0556" stroke="#3E3E3E"/>
<rect x="305.389" y="19.5555" width="18.0556" height="18.0556" stroke="#3E3E3E"/>
<rect x="152.944" y="172" width="18.0556" height="18.0556" stroke="#3E3E3E"/>
<rect x="305.389" y="172" width="18.0556" height="18.0556" stroke="#3E3E3E"/>
<rect x="152.944" y="95.7778" width="18.0556" height="18.0556" stroke="#3E3E3E"/>
<rect x="305.389" y="95.7778" width="18.0556" height="18.0556" stroke="#3E3E3E"/>
<rect x="152.944" y="248.222" width="18.0556" height="18.0556" stroke="#3E3E3E"/>
<rect x="305.389" y="248.222" width="18.0556" height="18.0556" stroke="#3E3E3E"/>
<rect x="76.722" y="95.7778" width="18.0556" height="18.0556" stroke="#3E3E3E"/>
<rect x="229.167" y="95.7778" width="18.0556" height="18.0556" stroke="#3E3E3E"/>
<rect x="76.722" y="248.222" width="18.0556" height="18.0556" stroke="#3E3E3E"/>
<rect x="229.167" y="248.222" width="18.0556" height="18.0556" stroke="#3E3E3E"/>
<rect x="76.722" y="57.6667" width="18.0556" height="18.0556" stroke="#3E3E3E"/>
<rect x="229.167" y="57.6667" width="18.0556" height="18.0556" stroke="#3E3E3E"/>
<rect x="76.722" y="210.111" width="18.0556" height="18.0556" stroke="#3E3E3E"/>
<rect x="229.167" y="210.111" width="18.0556" height="18.0556" stroke="#3E3E3E"/>
<rect x="152.944" y="57.6667" width="18.0556" height="18.0556" stroke="#3E3E3E"/>
<rect x="305.389" y="57.6667" width="18.0556" height="18.0556" stroke="#3E3E3E"/>
<rect x="152.944" y="210.111" width="18.0556" height="18.0556" stroke="#3E3E3E"/>
<rect x="305.389" y="210.111" width="18.0556" height="18.0556" stroke="#3E3E3E"/>
<rect x="152.944" y="133.889" width="18.0556" height="18.0556" stroke="#3E3E3E"/>
<rect x="305.389" y="133.889" width="18.0556" height="18.0556" stroke="#3E3E3E"/>
<rect x="152.944" y="286.333" width="18.0556" height="18.0556" stroke="#3E3E3E"/>
<rect x="305.389" y="286.333" width="18.0556" height="18.0556" stroke="#3E3E3E"/>
<rect x="76.722" y="133.889" width="18.0556" height="18.0556" stroke="#3E3E3E"/>
<rect x="229.167" y="133.889" width="18.0556" height="18.0556" stroke="#3E3E3E"/>
<rect x="76.722" y="286.333" width="18.0556" height="18.0556" stroke="#3E3E3E"/>
<rect x="229.167" y="286.333" width="18.0556" height="18.0556" stroke="#3E3E3E"/>
<rect x="38.611" y="38.6111" width="18.0556" height="18.0556" stroke="#3E3E3E"/>
<rect x="191.055" y="38.6111" width="18.0556" height="18.0556" stroke="#3E3E3E"/>
<rect x="38.611" y="191.056" width="18.0556" height="18.0556" stroke="#3E3E3E"/>
<rect x="191.055" y="191.056" width="18.0556" height="18.0556" stroke="#3E3E3E"/>
<rect x="114.833" y="38.6111" width="18.0556" height="18.0556" stroke="#3E3E3E"/>
<rect x="267.278" y="38.6111" width="18.0556" height="18.0556" stroke="#3E3E3E"/>
<rect x="114.833" y="191.056" width="18.0556" height="18.0556" stroke="#3E3E3E"/>
<rect x="267.278" y="191.056" width="18.0556" height="18.0556" stroke="#3E3E3E"/>
<rect x="114.833" y="114.833" width="18.0556" height="18.0556" stroke="#3E3E3E"/>
<rect x="267.278" y="114.833" width="18.0556" height="18.0556" stroke="#3E3E3E"/>
<rect x="114.833" y="267.278" width="18.0556" height="18.0556" stroke="#3E3E3E"/>
<rect x="267.278" y="267.278" width="18.0556" height="18.0556" stroke="#3E3E3E"/>
<rect x="38.611" y="114.833" width="18.0556" height="18.0556" stroke="#3E3E3E"/>
<rect x="191.055" y="114.833" width="18.0556" height="18.0556" stroke="#3E3E3E"/>
<rect x="38.611" y="267.278" width="18.0556" height="18.0556" stroke="#3E3E3E"/>
<rect x="191.055" y="267.278" width="18.0556" height="18.0556" stroke="#3E3E3E"/>
<rect x="38.611" y="76.7222" width="18.0556" height="18.0556" stroke="#3E3E3E"/>
<rect x="191.055" y="76.7222" width="18.0556" height="18.0556" stroke="#3E3E3E"/>
<rect x="38.611" y="229.167" width="18.0556" height="18.0556" stroke="#3E3E3E"/>
<rect x="191.055" y="229.167" width="18.0556" height="18.0556" stroke="#3E3E3E"/>
<rect x="114.833" y="76.7222" width="18.0556" height="18.0556" stroke="#3E3E3E"/>
<rect x="267.278" y="76.7222" width="18.0556" height="18.0556" stroke="#3E3E3E"/>
<rect x="114.833" y="229.167" width="18.0556" height="18.0556" stroke="#3E3E3E"/>
<rect x="267.278" y="229.167" width="18.0556" height="18.0556" stroke="#3E3E3E"/>
<rect x="114.833" y="152.944" width="18.0556" height="18.0556" stroke="#3E3E3E"/>
<rect x="267.278" y="152.944" width="18.0556" height="18.0556" stroke="#3E3E3E"/>
<rect x="114.833" y="305.389" width="18.0556" height="18.0556" stroke="#3E3E3E"/>
<rect x="267.278" y="305.389" width="18.0556" height="18.0556" stroke="#3E3E3E"/>
<rect x="38.611" y="152.944" width="18.0556" height="18.0556" stroke="#3E3E3E"/>
<rect x="191.055" y="152.944" width="18.0556" height="18.0556" stroke="#3E3E3E"/>
<rect x="38.611" y="305.389" width="18.0556" height="18.0556" stroke="#3E3E3E"/>
<rect x="191.055" y="305.389" width="18.0556" height="18.0556" stroke="#3E3E3E"/>
<rect x="76.722" y="38.6111" width="18.0556" height="18.0556" stroke="#3E3E3E"/>
<rect x="229.167" y="38.6111" width="18.0556" height="18.0556" stroke="#3E3E3E"/>
<rect x="76.722" y="191.056" width="18.0556" height="18.0556" stroke="#3E3E3E"/>
<rect x="229.167" y="191.056" width="18.0556" height="18.0556" stroke="#3E3E3E"/>
<rect x="152.944" y="38.6111" width="18.0556" height="18.0556" stroke="#3E3E3E"/>
<rect x="305.389" y="38.6111" width="18.0556" height="18.0556" stroke="#3E3E3E"/>
<rect x="152.944" y="191.056" width="18.0556" height="18.0556" stroke="#3E3E3E"/>
<rect x="305.389" y="191.056" width="18.0556" height="18.0556" stroke="#3E3E3E"/>
<rect x="152.944" y="114.833" width="18.0556" height="18.0556" stroke="#3E3E3E"/>
<rect x="305.389" y="114.833" width="18.0556" height="18.0556" stroke="#3E3E3E"/>
<rect x="152.944" y="267.278" width="18.0556" height="18.0556" stroke="#3E3E3E"/>
<rect x="305.389" y="267.278" width="18.0556" height="18.0556" stroke="#3E3E3E"/>
<rect x="76.722" y="114.833" width="18.0556" height="18.0556" stroke="#3E3E3E"/>
<rect x="229.167" y="114.833" width="18.0556" height="18.0556" stroke="#3E3E3E"/>
<rect x="76.722" y="267.278" width="18.0556" height="18.0556" stroke="#3E3E3E"/>
<rect x="229.167" y="267.278" width="18.0556" height="18.0556" stroke="#3E3E3E"/>
<rect x="76.722" y="76.7222" width="18.0556" height="18.0556" stroke="#3E3E3E"/>
<rect x="229.167" y="76.7222" width="18.0556" height="18.0556" stroke="#3E3E3E"/>
<rect x="76.722" y="229.167" width="18.0556" height="18.0556" stroke="#3E3E3E"/>
<rect x="229.167" y="229.167" width="18.0556" height="18.0556" stroke="#3E3E3E"/>
<rect x="152.944" y="76.7222" width="18.0556" height="18.0556" stroke="#3E3E3E"/>
<rect x="305.389" y="76.7222" width="18.0556" height="18.0556" stroke="#3E3E3E"/>
<rect x="152.944" y="229.167" width="18.0556" height="18.0556" stroke="#3E3E3E"/>
<rect x="305.389" y="229.167" width="18.0556" height="18.0556" stroke="#3E3E3E"/>
<rect x="152.944" y="152.944" width="18.0556" height="18.0556" stroke="#3E3E3E"/>
<rect x="305.389" y="152.944" width="18.0556" height="18.0556" stroke="#3E3E3E"/>
<rect x="152.944" y="305.389" width="18.0556" height="18.0556" stroke="#3E3E3E"/>
<rect x="305.389" y="305.389" width="18.0556" height="18.0556" stroke="#3E3E3E"/>
<rect x="76.722" y="152.944" width="18.0556" height="18.0556" stroke="#3E3E3E"/>
<rect x="229.167" y="152.944" width="18.0556" height="18.0556" stroke="#3E3E3E"/>
<rect x="76.722" y="305.389" width="18.0556" height="18.0556" stroke="#3E3E3E"/>
<rect x="229.167" y="305.389" width="18.0556" height="18.0556" stroke="#3E3E3E"/>
<path d="M190.555 266.778C216.866 266.778 238.194 245.449 238.194 219.139C238.194 192.829 216.866 171.5 190.555 171.5V266.778Z" fill="#343434"/>
<path d="M247.722 285.833C237.198 285.833 228.667 294.365 228.667 304.889C228.667 315.413 237.198 323.944 247.722 323.944L247.722 285.833Z" fill="#C4C4C4"/>
<path d="M228.667 266.778C207.618 266.778 190.555 283.841 190.555 304.889C190.555 325.937 207.618 343 228.667 343L228.667 266.778Z" fill="#343434"/>
<rect x="171.5" y="247.722" width="19.0556" height="76.2222" fill="white"/>
<path d="M190.555 247.722C206.342 247.722 219.139 234.925 219.139 219.139C219.139 203.353 206.342 190.556 190.555 190.556V247.722Z" fill="#C4C4C4"/>
<path d="M247.722 247.722V228.667L228.667 247.722H247.722Z" fill="white"/>
<path d="M228.667 266.778V247.722L209.611 266.778H228.667Z" fill="white"/>
<path d="M228.667 228.667V209.611L209.611 228.667H228.667Z" fill="white"/>
<path d="M209.611 209.611V190.556L190.555 209.611H209.611Z" fill="white"/>
<path d="M76.2221 266.778C44.6498 266.778 19.0555 292.372 19.0555 323.944L133.389 323.944C133.389 292.372 107.794 266.778 76.2221 266.778Z" fill="#343434"/>
<rect x="57.1665" y="247.722" width="19.0556" height="95.2778" fill="#6C2AF6"/>
<rect x="76.222" y="304.889" width="19.0556" height="19.0556" fill="black"/>
<path d="M76.222 304.889C65.6979 304.889 57.1665 313.42 57.1665 323.945L95.2776 323.945C95.2776 313.42 86.7461 304.889 76.222 304.889Z" fill="white"/>
<path d="M304.889 114.333V95.2778L285.833 114.333H304.889Z" fill="white"/>
<path d="M285.833 95.2778V76.2223L266.778 95.2778H285.833Z" fill="white"/>
<path d="M190.555 228.667V209.611L171.5 228.667H190.555Z" fill="white"/>
<path d="M285.833 133.389V114.333L266.778 133.389H285.833Z" fill="white"/>
<path d="M266.778 114.333V95.2778L247.722 114.333H266.778Z" fill="white"/>
<path d="M171.5 304.889V228.667L95.2776 304.889H171.5Z" fill="#C4C4C4"/>
<path d="M266.778 228.667V209.611L247.722 228.667H266.778Z" fill="white"/>
<path d="M247.722 209.611V190.556L228.667 209.611H247.722Z" fill="white"/>
<path d="M209.611 152.444L228.667 152.444L209.611 133.389L209.611 152.444Z" fill="white"/>
<path d="M171.5 114.333L171.5 133.389L190.555 114.333L171.5 114.333Z" fill="white"/>
<path d="M190.555 95.2778L190.555 114.333L209.611 95.2778L190.555 95.2778Z" fill="white"/>
<path d="M19.0554 19.0556L19.0554 38.1111L38.111 19.0556L19.0554 19.0556Z" fill="white"/>
<path d="M304.889 38.1111L304.889 57.1667L323.944 38.1111L304.889 38.1111Z" fill="white"/>
<path d="M228.667 190.556V171.5L209.611 190.556H228.667Z" fill="white"/>
<path d="M323.944 95.2778V76.2223L304.889 95.2778H323.944Z" fill="white"/>
<path d="M304.889 76.2222V57.1667L285.833 76.2222H304.889Z" fill="white"/>
<path d="M228.667 209.611L228.667 228.667L247.722 209.611L228.667 209.611Z" fill="white"/>
<path d="M209.611 228.667L209.611 247.722L228.667 228.667L209.611 228.667Z" fill="white"/>
<path d="M209.611 190.556L209.611 209.611L228.667 190.556L209.611 190.556Z" fill="white"/>
<path d="M304.889 95.2778L304.889 114.333L323.944 95.2778L304.889 95.2778Z" fill="white"/>
<path d="M285.833 76.2223L285.833 95.2778L304.889 76.2223L285.833 76.2223Z" fill="white"/>
<path d="M190.555 209.611L190.555 228.667L209.611 209.611L190.555 209.611Z" fill="white"/>
<path d="M285.833 114.333L285.833 133.389L304.889 114.333L285.833 114.333Z" fill="white"/>
<path d="M266.778 95.2778L266.778 114.333L285.833 95.2778L266.778 95.2778Z" fill="white"/>
<circle cx="295.361" cy="200.083" r="28.5833" fill="#6C2AF6"/>
<rect x="285.833" y="228.667" width="19.0556" height="19.0556" fill="white"/>
<rect x="285.833" y="209.611" width="19.0556" height="19.0556" fill="black"/>
<rect x="285.833" y="190.556" width="19.0556" height="19.0556" fill="black"/>
<rect x="190.555" y="228.667" width="19.0556" height="19.0556" fill="#343434"/>
<rect x="247.722" y="228.667" width="19.0556" height="19.0556" fill="white"/>
<rect x="228.667" y="247.722" width="38.1111" height="19.0556" fill="white"/>
<rect x="247.722" y="285.833" width="19.0556" height="19.0556" fill="white"/>
<rect x="304.889" y="247.722" width="38.1111" height="19.0556" fill="white"/>
<rect x="304.889" y="304.889" width="19.0556" height="19.0556" fill="white"/>
<rect x="247.722" y="304.889" width="38.1111" height="19.0556" fill="#343434"/>
<rect x="247.722" y="19.0556" width="76.2222" height="19.0556" fill="#343434"/>
<rect x="228.667" y="57.1667" width="76.2222" height="19.0556" fill="#343434"/>
<path d="M209.611 247.722V228.667L190.555 247.722H209.611Z" fill="white"/>
<circle cx="114.333" cy="133.389" r="57.1667" fill="#343434"/>
<path d="M114.333 19.0556C82.7611 19.0556 57.1667 44.65 57.1667 76.2223L171.5 76.2223C171.5 44.65 145.906 19.0556 114.333 19.0556Z" fill="#C4C4C4"/>
<rect x="76.2222" y="76.2222" width="9.52778" height="76.2222" fill="white"/>
<rect x="107.664" y="171.5" width="9.52778" height="57.1667" fill="white"/>
<rect x="126.719" y="171.5" width="9.52778" height="114.333" fill="white"/>
<rect x="95.2778" y="76.2222" width="9.52778" height="38.1111" fill="white"/>
<rect x="57.1666" y="76.2222" width="9.52778" height="57.1667" fill="white"/>
<rect x="133.389" y="95.2778" width="19.0556" height="19.0556" fill="white"/>
<rect x="152.444" y="76.2222" width="38.1111" height="38.1111" fill="#C4C4C4"/>
<rect x="190.556" y="38.1111" width="38.1111" height="38.1111" fill="#C4C4C4"/>
<rect x="202.942" y="152.444" width="57.1667" height="19.0556" fill="#C4C4C4"/>
<rect x="152.444" y="76.2222" width="19.0556" height="19.0556" fill="#6C2AF6"/>
<rect x="209.611" y="19.0556" width="38.1111" height="19.0556" fill="#9A5FE4"/>
<rect x="133.389" y="114.333" width="19.0556" height="19.0556" fill="black"/>
<rect x="152.444" y="114.333" width="19.0556" height="19.0556" fill="black"/>
<rect x="285.833" y="38.1111" width="19.0556" height="19.0556" fill="#C4C4C4"/>
<path d="M95.2778 209.611V133.389L19.0555 209.611H95.2778Z" fill="white"/>
<path d="M209.611 171.5V133.389L171.5 171.5H209.611Z" fill="white"/>
<path d="M57.1667 76.2223V38.1111L19.0555 76.2223H57.1667Z" fill="white"/>
<rect x="57.1666" y="152.444" width="19.0556" height="19.0556" fill="black"/>
<rect x="76.2222" y="152.444" width="19.0556" height="19.0556" fill="black"/>
<rect x="76.2222" y="133.389" width="19.0556" height="19.0556" fill="black"/>
<rect x="95.2778" y="152.444" width="19.0556" height="19.0556" fill="black"/>
<rect x="342.047" y="304.889" width="0.952778" height="38.1111" fill="white"/>
<rect x="343" y="342.047" width="0.952779" height="38.1111" transform="rotate(90 343 342.047)" fill="white"/>
<rect x="0.952759" y="38.1111" width="0.952781" height="38.1111" transform="rotate(-180 0.952759 38.1111)" fill="white"/>
<rect y="0.952759" width="0.952783" height="38.1111" transform="rotate(-90 0 0.952759)" fill="white"/>
</svg>
